<svg width="1080" height="1080" viewBox="0 0 1080 1080" xmlns="http://www.w3.org/2000/svg">
  <!-- White/transparent background -->
  <rect width="1080" height="1080" fill="transparent"/>
  
  <!-- Top blue swoosh (curved, flowing) -->
  <path d="M 200 350 Q 350 200, 540 250 Q 730 300, 880 350 Q 900 360, 890 380 Q 850 420, 700 400 Q 540 380, 380 400 Q 230 420, 190 380 Q 180 360, 200 350 Z" 
        fill="#1e3a8a" 
        stroke="none"/>
  
  <!-- Bottom blue swoosh (curved, flowing) -->
  <path d="M 880 730 Q 730 880, 540 830 Q 350 780, 200 730 Q 180 720, 190 700 Q 230 660, 380 680 Q 540 700, 700 680 Q 850 660, 890 700 Q 900 720, 880 730 Z" 
        fill="#1e3a8a" 
        stroke="none"/>
  
  <!-- Nectar text in bold -->
  <text x="540" y="560" 
        font-family="Arial, Helvetica, sans-serif" 
        font-size="200" 
        font-weight="900" 
        fill="#000000" 
        text-anchor="middle" 
        dominant-baseline="middle">nectar</text>
</svg>